<mxfile host="app.diagrams.net" agent="Mozilla/5.0 (Windows NT 10.0; Win64; x64) AppleWebKit/537.36 (KHTML, like Gecko) Chrome/127.0.0.0 Safari/537.36" version="24.7.7">
  <diagram name="第 1 页" id="iwtMWnHwQwPlec1fg5JA">
    <mxGraphModel dx="1434" dy="746" grid="1" gridSize="10" guides="1" tooltips="1" connect="1" arrows="1" fold="1" page="1" pageScale="1" pageWidth="827" pageHeight="1169" math="0" shadow="0">
      <root>
        <mxCell id="0" />
        <mxCell id="1" parent="0" />
        <mxCell id="8UYdoH1po8yMHV7NUwBD-7" style="edgeStyle=orthogonalEdgeStyle;rounded=0;orthogonalLoop=1;jettySize=auto;html=1;entryX=0;entryY=0.5;entryDx=0;entryDy=0;" edge="1" parent="1" source="8UYdoH1po8yMHV7NUwBD-1" target="8UYdoH1po8yMHV7NUwBD-2">
          <mxGeometry relative="1" as="geometry" />
        </mxCell>
        <mxCell id="8UYdoH1po8yMHV7NUwBD-1" value="HEAD" style="rounded=0;whiteSpace=wrap;html=1;fillColor=#d5e8d4;strokeColor=#82b366;" vertex="1" parent="1">
          <mxGeometry x="120" y="80" width="40" height="40" as="geometry" />
        </mxCell>
        <mxCell id="8UYdoH1po8yMHV7NUwBD-8" style="edgeStyle=orthogonalEdgeStyle;rounded=0;orthogonalLoop=1;jettySize=auto;html=1;entryX=0;entryY=0.5;entryDx=0;entryDy=0;" edge="1" parent="1" source="8UYdoH1po8yMHV7NUwBD-2" target="8UYdoH1po8yMHV7NUwBD-4">
          <mxGeometry relative="1" as="geometry" />
        </mxCell>
        <mxCell id="8UYdoH1po8yMHV7NUwBD-2" value="A" style="rounded=0;whiteSpace=wrap;html=1;" vertex="1" parent="1">
          <mxGeometry x="200" y="80" width="40" height="40" as="geometry" />
        </mxCell>
        <mxCell id="8UYdoH1po8yMHV7NUwBD-11" style="edgeStyle=orthogonalEdgeStyle;rounded=0;orthogonalLoop=1;jettySize=auto;html=1;entryX=0;entryY=0.5;entryDx=0;entryDy=0;" edge="1" parent="1" source="8UYdoH1po8yMHV7NUwBD-3" target="8UYdoH1po8yMHV7NUwBD-6">
          <mxGeometry relative="1" as="geometry" />
        </mxCell>
        <mxCell id="8UYdoH1po8yMHV7NUwBD-3" value="D" style="rounded=0;whiteSpace=wrap;html=1;" vertex="1" parent="1">
          <mxGeometry x="440" y="80" width="40" height="40" as="geometry" />
        </mxCell>
        <mxCell id="8UYdoH1po8yMHV7NUwBD-9" style="edgeStyle=orthogonalEdgeStyle;rounded=0;orthogonalLoop=1;jettySize=auto;html=1;entryX=0;entryY=0.5;entryDx=0;entryDy=0;" edge="1" parent="1" source="8UYdoH1po8yMHV7NUwBD-4" target="8UYdoH1po8yMHV7NUwBD-5">
          <mxGeometry relative="1" as="geometry" />
        </mxCell>
        <mxCell id="8UYdoH1po8yMHV7NUwBD-4" value="B" style="rounded=0;whiteSpace=wrap;html=1;" vertex="1" parent="1">
          <mxGeometry x="280" y="80" width="40" height="40" as="geometry" />
        </mxCell>
        <mxCell id="8UYdoH1po8yMHV7NUwBD-10" style="edgeStyle=orthogonalEdgeStyle;rounded=0;orthogonalLoop=1;jettySize=auto;html=1;entryX=0;entryY=0.5;entryDx=0;entryDy=0;" edge="1" parent="1" source="8UYdoH1po8yMHV7NUwBD-5" target="8UYdoH1po8yMHV7NUwBD-3">
          <mxGeometry relative="1" as="geometry" />
        </mxCell>
        <mxCell id="8UYdoH1po8yMHV7NUwBD-5" value="C" style="rounded=0;whiteSpace=wrap;html=1;" vertex="1" parent="1">
          <mxGeometry x="360" y="80" width="40" height="40" as="geometry" />
        </mxCell>
        <mxCell id="8UYdoH1po8yMHV7NUwBD-6" value="E" style="rounded=0;whiteSpace=wrap;html=1;" vertex="1" parent="1">
          <mxGeometry x="520" y="80" width="40" height="40" as="geometry" />
        </mxCell>
        <mxCell id="8UYdoH1po8yMHV7NUwBD-12" value="" style="shape=flexArrow;endArrow=classic;html=1;rounded=0;" edge="1" parent="1">
          <mxGeometry width="50" height="50" relative="1" as="geometry">
            <mxPoint x="340" y="150" as="sourcePoint" />
            <mxPoint x="340" y="200" as="targetPoint" />
          </mxGeometry>
        </mxCell>
        <mxCell id="8UYdoH1po8yMHV7NUwBD-51" style="edgeStyle=orthogonalEdgeStyle;rounded=0;orthogonalLoop=1;jettySize=auto;html=1;entryX=0;entryY=0.5;entryDx=0;entryDy=0;" edge="1" parent="1" source="8UYdoH1po8yMHV7NUwBD-14" target="8UYdoH1po8yMHV7NUwBD-16">
          <mxGeometry relative="1" as="geometry" />
        </mxCell>
        <mxCell id="8UYdoH1po8yMHV7NUwBD-14" value="HEAD" style="rounded=0;whiteSpace=wrap;html=1;fillColor=#d5e8d4;strokeColor=#82b366;" vertex="1" parent="1">
          <mxGeometry x="120" y="280" width="40" height="40" as="geometry" />
        </mxCell>
        <mxCell id="8UYdoH1po8yMHV7NUwBD-52" style="edgeStyle=orthogonalEdgeStyle;rounded=0;orthogonalLoop=1;jettySize=auto;html=1;entryX=0;entryY=0.5;entryDx=0;entryDy=0;" edge="1" parent="1" source="8UYdoH1po8yMHV7NUwBD-16" target="8UYdoH1po8yMHV7NUwBD-20">
          <mxGeometry relative="1" as="geometry" />
        </mxCell>
        <mxCell id="8UYdoH1po8yMHV7NUwBD-16" value="B" style="rounded=0;whiteSpace=wrap;html=1;" vertex="1" parent="1">
          <mxGeometry x="200" y="280" width="40" height="40" as="geometry" />
        </mxCell>
        <mxCell id="8UYdoH1po8yMHV7NUwBD-17" style="edgeStyle=orthogonalEdgeStyle;rounded=0;orthogonalLoop=1;jettySize=auto;html=1;entryX=0;entryY=0.5;entryDx=0;entryDy=0;" edge="1" parent="1" source="8UYdoH1po8yMHV7NUwBD-18" target="8UYdoH1po8yMHV7NUwBD-23">
          <mxGeometry relative="1" as="geometry" />
        </mxCell>
        <mxCell id="8UYdoH1po8yMHV7NUwBD-18" value="D" style="rounded=0;whiteSpace=wrap;html=1;" vertex="1" parent="1">
          <mxGeometry x="440" y="280" width="40" height="40" as="geometry" />
        </mxCell>
        <mxCell id="8UYdoH1po8yMHV7NUwBD-19" style="edgeStyle=orthogonalEdgeStyle;rounded=0;orthogonalLoop=1;jettySize=auto;html=1;entryX=0;entryY=0.5;entryDx=0;entryDy=0;" edge="1" parent="1" source="8UYdoH1po8yMHV7NUwBD-20" target="8UYdoH1po8yMHV7NUwBD-22">
          <mxGeometry relative="1" as="geometry" />
        </mxCell>
        <mxCell id="8UYdoH1po8yMHV7NUwBD-20" value="A" style="rounded=0;whiteSpace=wrap;html=1;" vertex="1" parent="1">
          <mxGeometry x="280" y="280" width="40" height="40" as="geometry" />
        </mxCell>
        <mxCell id="8UYdoH1po8yMHV7NUwBD-21" style="edgeStyle=orthogonalEdgeStyle;rounded=0;orthogonalLoop=1;jettySize=auto;html=1;entryX=0;entryY=0.5;entryDx=0;entryDy=0;" edge="1" parent="1" source="8UYdoH1po8yMHV7NUwBD-22" target="8UYdoH1po8yMHV7NUwBD-18">
          <mxGeometry relative="1" as="geometry" />
        </mxCell>
        <mxCell id="8UYdoH1po8yMHV7NUwBD-22" value="C" style="rounded=0;whiteSpace=wrap;html=1;" vertex="1" parent="1">
          <mxGeometry x="360" y="280" width="40" height="40" as="geometry" />
        </mxCell>
        <mxCell id="8UYdoH1po8yMHV7NUwBD-23" value="E" style="rounded=0;whiteSpace=wrap;html=1;" vertex="1" parent="1">
          <mxGeometry x="520" y="280" width="40" height="40" as="geometry" />
        </mxCell>
        <mxCell id="8UYdoH1po8yMHV7NUwBD-24" value="" style="endArrow=classic;html=1;rounded=0;" edge="1" parent="1">
          <mxGeometry width="50" height="50" relative="1" as="geometry">
            <mxPoint x="139.5" y="20" as="sourcePoint" />
            <mxPoint x="139.5" y="70" as="targetPoint" />
          </mxGeometry>
        </mxCell>
        <mxCell id="8UYdoH1po8yMHV7NUwBD-25" value="pre" style="edgeLabel;html=1;align=center;verticalAlign=middle;resizable=0;points=[];" vertex="1" connectable="0" parent="8UYdoH1po8yMHV7NUwBD-24">
          <mxGeometry x="-0.32" y="2" relative="1" as="geometry">
            <mxPoint x="-1" as="offset" />
          </mxGeometry>
        </mxCell>
        <mxCell id="8UYdoH1po8yMHV7NUwBD-26" value="" style="endArrow=classic;html=1;rounded=0;" edge="1" parent="1">
          <mxGeometry width="50" height="50" relative="1" as="geometry">
            <mxPoint x="219.5" y="20" as="sourcePoint" />
            <mxPoint x="219.5" y="70" as="targetPoint" />
          </mxGeometry>
        </mxCell>
        <mxCell id="8UYdoH1po8yMHV7NUwBD-27" value="pre" style="edgeLabel;html=1;align=center;verticalAlign=middle;resizable=0;points=[];" vertex="1" connectable="0" parent="8UYdoH1po8yMHV7NUwBD-26">
          <mxGeometry x="-0.32" y="2" relative="1" as="geometry">
            <mxPoint x="-1" as="offset" />
          </mxGeometry>
        </mxCell>
        <mxCell id="8UYdoH1po8yMHV7NUwBD-28" value="start" style="edgeLabel;html=1;align=center;verticalAlign=middle;resizable=0;points=[];" vertex="1" connectable="0" parent="8UYdoH1po8yMHV7NUwBD-26">
          <mxGeometry x="-0.2" y="4" relative="1" as="geometry">
            <mxPoint x="-3" as="offset" />
          </mxGeometry>
        </mxCell>
        <mxCell id="8UYdoH1po8yMHV7NUwBD-33" value="" style="endArrow=classic;html=1;rounded=0;" edge="1" parent="1">
          <mxGeometry width="50" height="50" relative="1" as="geometry">
            <mxPoint x="300" y="20" as="sourcePoint" />
            <mxPoint x="300" y="70" as="targetPoint" />
          </mxGeometry>
        </mxCell>
        <mxCell id="8UYdoH1po8yMHV7NUwBD-37" value="end" style="edgeLabel;html=1;align=center;verticalAlign=middle;resizable=0;points=[];" vertex="1" connectable="0" parent="8UYdoH1po8yMHV7NUwBD-33">
          <mxGeometry x="-0.24" y="-1" relative="1" as="geometry">
            <mxPoint as="offset" />
          </mxGeometry>
        </mxCell>
        <mxCell id="8UYdoH1po8yMHV7NUwBD-38" value="" style="endArrow=classic;html=1;rounded=0;" edge="1" parent="1">
          <mxGeometry width="50" height="50" relative="1" as="geometry">
            <mxPoint x="379.5" y="20" as="sourcePoint" />
            <mxPoint x="379.5" y="70" as="targetPoint" />
          </mxGeometry>
        </mxCell>
        <mxCell id="8UYdoH1po8yMHV7NUwBD-39" value="next" style="edgeLabel;html=1;align=center;verticalAlign=middle;resizable=0;points=[];" vertex="1" connectable="0" parent="8UYdoH1po8yMHV7NUwBD-38">
          <mxGeometry x="-0.24" y="-1" relative="1" as="geometry">
            <mxPoint as="offset" />
          </mxGeometry>
        </mxCell>
        <mxCell id="8UYdoH1po8yMHV7NUwBD-40" value="" style="endArrow=classic;html=1;rounded=0;" edge="1" parent="1">
          <mxGeometry width="50" height="50" relative="1" as="geometry">
            <mxPoint x="299.5" y="220" as="sourcePoint" />
            <mxPoint x="299.5" y="270" as="targetPoint" />
          </mxGeometry>
        </mxCell>
        <mxCell id="8UYdoH1po8yMHV7NUwBD-41" value="pre" style="edgeLabel;html=1;align=center;verticalAlign=middle;resizable=0;points=[];" vertex="1" connectable="0" parent="8UYdoH1po8yMHV7NUwBD-40">
          <mxGeometry x="-0.32" y="2" relative="1" as="geometry">
            <mxPoint x="-1" as="offset" />
          </mxGeometry>
        </mxCell>
        <mxCell id="8UYdoH1po8yMHV7NUwBD-42" value="" style="endArrow=classic;html=1;rounded=0;" edge="1" parent="1">
          <mxGeometry width="50" height="50" relative="1" as="geometry">
            <mxPoint x="380" y="220" as="sourcePoint" />
            <mxPoint x="380" y="270" as="targetPoint" />
          </mxGeometry>
        </mxCell>
        <mxCell id="8UYdoH1po8yMHV7NUwBD-43" value="pre" style="edgeLabel;html=1;align=center;verticalAlign=middle;resizable=0;points=[];" vertex="1" connectable="0" parent="8UYdoH1po8yMHV7NUwBD-42">
          <mxGeometry x="-0.32" y="2" relative="1" as="geometry">
            <mxPoint x="-1" as="offset" />
          </mxGeometry>
        </mxCell>
        <mxCell id="8UYdoH1po8yMHV7NUwBD-44" value="start" style="edgeLabel;html=1;align=center;verticalAlign=middle;resizable=0;points=[];" vertex="1" connectable="0" parent="8UYdoH1po8yMHV7NUwBD-42">
          <mxGeometry x="-0.2" y="4" relative="1" as="geometry">
            <mxPoint x="-3" as="offset" />
          </mxGeometry>
        </mxCell>
        <mxCell id="8UYdoH1po8yMHV7NUwBD-45" value="" style="endArrow=classic;html=1;rounded=0;" edge="1" parent="1">
          <mxGeometry width="50" height="50" relative="1" as="geometry">
            <mxPoint x="459.5" y="220" as="sourcePoint" />
            <mxPoint x="459.5" y="270" as="targetPoint" />
          </mxGeometry>
        </mxCell>
        <mxCell id="8UYdoH1po8yMHV7NUwBD-46" value="end" style="edgeLabel;html=1;align=center;verticalAlign=middle;resizable=0;points=[];" vertex="1" connectable="0" parent="8UYdoH1po8yMHV7NUwBD-45">
          <mxGeometry x="-0.24" y="-1" relative="1" as="geometry">
            <mxPoint as="offset" />
          </mxGeometry>
        </mxCell>
        <mxCell id="8UYdoH1po8yMHV7NUwBD-53" value="" style="shape=flexArrow;endArrow=classic;html=1;rounded=0;" edge="1" parent="1">
          <mxGeometry width="50" height="50" relative="1" as="geometry">
            <mxPoint x="340" y="370" as="sourcePoint" />
            <mxPoint x="340" y="420" as="targetPoint" />
          </mxGeometry>
        </mxCell>
        <mxCell id="8UYdoH1po8yMHV7NUwBD-54" style="edgeStyle=orthogonalEdgeStyle;rounded=0;orthogonalLoop=1;jettySize=auto;html=1;entryX=0;entryY=0.5;entryDx=0;entryDy=0;" edge="1" parent="1" source="8UYdoH1po8yMHV7NUwBD-55" target="8UYdoH1po8yMHV7NUwBD-57">
          <mxGeometry relative="1" as="geometry" />
        </mxCell>
        <mxCell id="8UYdoH1po8yMHV7NUwBD-55" value="HEAD" style="rounded=0;whiteSpace=wrap;html=1;fillColor=#d5e8d4;strokeColor=#82b366;" vertex="1" parent="1">
          <mxGeometry x="120" y="490" width="40" height="40" as="geometry" />
        </mxCell>
        <mxCell id="8UYdoH1po8yMHV7NUwBD-56" style="edgeStyle=orthogonalEdgeStyle;rounded=0;orthogonalLoop=1;jettySize=auto;html=1;entryX=0;entryY=0.5;entryDx=0;entryDy=0;" edge="1" parent="1" source="8UYdoH1po8yMHV7NUwBD-57" target="8UYdoH1po8yMHV7NUwBD-61">
          <mxGeometry relative="1" as="geometry" />
        </mxCell>
        <mxCell id="8UYdoH1po8yMHV7NUwBD-57" value="B" style="rounded=0;whiteSpace=wrap;html=1;" vertex="1" parent="1">
          <mxGeometry x="200" y="490" width="40" height="40" as="geometry" />
        </mxCell>
        <mxCell id="8UYdoH1po8yMHV7NUwBD-58" style="edgeStyle=orthogonalEdgeStyle;rounded=0;orthogonalLoop=1;jettySize=auto;html=1;entryX=0;entryY=0.5;entryDx=0;entryDy=0;" edge="1" parent="1" source="8UYdoH1po8yMHV7NUwBD-59" target="8UYdoH1po8yMHV7NUwBD-64">
          <mxGeometry relative="1" as="geometry" />
        </mxCell>
        <mxCell id="8UYdoH1po8yMHV7NUwBD-59" value="C" style="rounded=0;whiteSpace=wrap;html=1;" vertex="1" parent="1">
          <mxGeometry x="440" y="490" width="40" height="40" as="geometry" />
        </mxCell>
        <mxCell id="8UYdoH1po8yMHV7NUwBD-60" style="edgeStyle=orthogonalEdgeStyle;rounded=0;orthogonalLoop=1;jettySize=auto;html=1;entryX=0;entryY=0.5;entryDx=0;entryDy=0;" edge="1" parent="1" source="8UYdoH1po8yMHV7NUwBD-61" target="8UYdoH1po8yMHV7NUwBD-63">
          <mxGeometry relative="1" as="geometry" />
        </mxCell>
        <mxCell id="8UYdoH1po8yMHV7NUwBD-61" value="A" style="rounded=0;whiteSpace=wrap;html=1;" vertex="1" parent="1">
          <mxGeometry x="280" y="490" width="40" height="40" as="geometry" />
        </mxCell>
        <mxCell id="8UYdoH1po8yMHV7NUwBD-62" style="edgeStyle=orthogonalEdgeStyle;rounded=0;orthogonalLoop=1;jettySize=auto;html=1;entryX=0;entryY=0.5;entryDx=0;entryDy=0;" edge="1" parent="1" source="8UYdoH1po8yMHV7NUwBD-63" target="8UYdoH1po8yMHV7NUwBD-59">
          <mxGeometry relative="1" as="geometry" />
        </mxCell>
        <mxCell id="8UYdoH1po8yMHV7NUwBD-63" value="D" style="rounded=0;whiteSpace=wrap;html=1;" vertex="1" parent="1">
          <mxGeometry x="360" y="490" width="40" height="40" as="geometry" />
        </mxCell>
        <mxCell id="8UYdoH1po8yMHV7NUwBD-64" value="E" style="rounded=0;whiteSpace=wrap;html=1;" vertex="1" parent="1">
          <mxGeometry x="520" y="490" width="40" height="40" as="geometry" />
        </mxCell>
        <mxCell id="8UYdoH1po8yMHV7NUwBD-65" value="" style="endArrow=classic;html=1;rounded=0;" edge="1" parent="1">
          <mxGeometry width="50" height="50" relative="1" as="geometry">
            <mxPoint x="459.5" y="430" as="sourcePoint" />
            <mxPoint x="459.5" y="480" as="targetPoint" />
          </mxGeometry>
        </mxCell>
        <mxCell id="8UYdoH1po8yMHV7NUwBD-66" value="pre" style="edgeLabel;html=1;align=center;verticalAlign=middle;resizable=0;points=[];" vertex="1" connectable="0" parent="8UYdoH1po8yMHV7NUwBD-65">
          <mxGeometry x="-0.32" y="2" relative="1" as="geometry">
            <mxPoint x="-1" as="offset" />
          </mxGeometry>
        </mxCell>
        <mxCell id="8UYdoH1po8yMHV7NUwBD-67" value="" style="endArrow=classic;html=1;rounded=0;" edge="1" parent="1">
          <mxGeometry width="50" height="50" relative="1" as="geometry">
            <mxPoint x="539.5" y="430" as="sourcePoint" />
            <mxPoint x="539.5" y="480" as="targetPoint" />
          </mxGeometry>
        </mxCell>
        <mxCell id="8UYdoH1po8yMHV7NUwBD-68" value="pre" style="edgeLabel;html=1;align=center;verticalAlign=middle;resizable=0;points=[];" vertex="1" connectable="0" parent="8UYdoH1po8yMHV7NUwBD-67">
          <mxGeometry x="-0.32" y="2" relative="1" as="geometry">
            <mxPoint x="-1" as="offset" />
          </mxGeometry>
        </mxCell>
        <mxCell id="8UYdoH1po8yMHV7NUwBD-69" value="start" style="edgeLabel;html=1;align=center;verticalAlign=middle;resizable=0;points=[];" vertex="1" connectable="0" parent="8UYdoH1po8yMHV7NUwBD-67">
          <mxGeometry x="-0.2" y="4" relative="1" as="geometry">
            <mxPoint x="-3" as="offset" />
          </mxGeometry>
        </mxCell>
      </root>
    </mxGraphModel>
  </diagram>
</mxfile>
